<svg width="194" height="56" viewBox="0 0 194 56" fill="none" xmlns="http://www.w3.org/2000/svg">
<rect width="194" height="56" rx="10" fill="#171717"/>
<path d="M33 38.75H27C21.57 38.75 19.25 36.43 19.25 31V25C19.25 19.57 21.57 17.25 27 17.25H33C38.43 17.25 40.75 19.57 40.75 25V31C40.75 36.43 38.43 38.75 33 38.75ZM27 18.75C22.39 18.75 20.75 20.39 20.75 25V31C20.75 35.61 22.39 37.25 27 37.25H33C37.61 37.25 39.25 35.61 39.25 31V25C39.25 20.39 37.61 18.75 33 18.75H27Z" fill="white"/>
<path d="M29.9999 31.26C29.8099 31.26 29.6199 31.19 29.4699 31.04L26.4699 28.04C26.1799 27.75 26.1799 27.27 26.4699 26.98C26.7599 26.69 27.2399 26.69 27.5299 26.98L29.9999 29.45L32.4699 26.98C32.7599 26.69 33.2399 26.69 33.5299 26.98C33.8199 27.27 33.8199 27.75 33.5299 28.04L30.5299 31.04C30.3799 31.19 30.1899 31.26 29.9999 31.26Z" fill="white"/>
<path d="M30 31.26C29.59 31.26 29.25 30.92 29.25 30.51V22.51C29.25 22.1 29.59 21.76 30 21.76C30.41 21.76 30.75 22.1 30.75 22.51V30.51C30.75 30.93 30.41 31.26 30 31.26Z" fill="white"/>
<path d="M29.9999 34.23C27.8899 34.23 25.7699 33.89 23.7599 33.22C23.3699 33.09 23.1599 32.66 23.2899 32.27C23.4199 31.88 23.8399 31.66 24.2399 31.8C27.9599 33.04 32.0499 33.04 35.7699 31.8C36.1599 31.67 36.5899 31.88 36.7199 32.27C36.8499 32.66 36.6399 33.09 36.2499 33.22C34.2299 33.9 32.1099 34.23 29.9999 34.23Z" fill="#292D32"/>
<path d="M53.1974 33.5V22.3H57.0214C58.3334 22.3 59.4107 22.5347 60.2534 23.004C61.1067 23.4627 61.736 24.1133 62.1414 24.956C62.5574 25.788 62.7654 26.7693 62.7654 27.9C62.7654 29.0307 62.5574 30.0173 62.1414 30.86C61.736 31.692 61.1067 32.3427 60.2534 32.812C59.4107 33.2707 58.3334 33.5 57.0214 33.5H53.1974ZM55.2454 31.74H56.9254C57.864 31.74 58.6054 31.5907 59.1494 31.292C59.6934 30.9827 60.0827 30.5453 60.3174 29.98C60.552 29.404 60.6694 28.7107 60.6694 27.9C60.6694 27.1 60.552 26.412 60.3174 25.836C60.0827 25.26 59.6934 24.8173 59.1494 24.508C58.6054 24.1987 57.864 24.044 56.9254 24.044H55.2454V31.74ZM69.3324 33.692C68.5644 33.692 67.871 33.516 67.2524 33.164C66.6444 32.812 66.159 32.3267 65.7964 31.708C65.4444 31.0787 65.2684 30.3533 65.2684 29.532C65.2684 28.7107 65.4497 27.9907 65.8124 27.372C66.175 26.7427 66.6604 26.252 67.2684 25.9C67.887 25.548 68.5804 25.372 69.3484 25.372C70.1057 25.372 70.7884 25.548 71.3964 25.9C72.015 26.252 72.5004 26.7427 72.8524 27.372C73.215 27.9907 73.3964 28.7107 73.3964 29.532C73.3964 30.3533 73.215 31.0787 72.8524 31.708C72.5004 32.3267 72.015 32.812 71.3964 33.164C70.7777 33.516 70.0897 33.692 69.3324 33.692ZM69.3324 31.916C69.8657 31.916 70.3297 31.7187 70.7244 31.324C71.119 30.9187 71.3164 30.3213 71.3164 29.532C71.3164 28.7427 71.119 28.1507 70.7244 27.756C70.3297 27.3507 69.871 27.148 69.3484 27.148C68.8044 27.148 68.335 27.3507 67.9404 27.756C67.5564 28.1507 67.3644 28.7427 67.3644 29.532C67.3644 30.3213 67.5564 30.9187 67.9404 31.324C68.335 31.7187 68.799 31.916 69.3324 31.916ZM77.4983 33.5L75.1783 25.564H77.2103L78.5863 31.276L80.1863 25.564H82.4583L84.0583 31.276L85.4503 25.564H87.4823L85.1463 33.5H83.0183L81.3223 27.564L79.6263 33.5H77.4983ZM89.7744 33.5V25.564H91.5824L91.7424 26.908C91.9877 26.4387 92.3397 26.0653 92.7984 25.788C93.2677 25.5107 93.817 25.372 94.4464 25.372C95.4277 25.372 96.1904 25.6813 96.7344 26.3C97.2784 26.9187 97.5504 27.8253 97.5504 29.02V33.5H95.5024V29.212C95.5024 28.5293 95.3637 28.0067 95.0864 27.644C94.809 27.2813 94.377 27.1 93.7904 27.1C93.2144 27.1 92.7397 27.3027 92.3664 27.708C92.0037 28.1133 91.8224 28.6787 91.8224 29.404V33.5H89.7744ZM100.509 33.5V21.98H102.557V33.5H100.509ZM109.457 33.692C108.689 33.692 107.996 33.516 107.377 33.164C106.769 32.812 106.284 32.3267 105.921 31.708C105.569 31.0787 105.393 30.3533 105.393 29.532C105.393 28.7107 105.575 27.9907 105.937 27.372C106.3 26.7427 106.785 26.252 107.393 25.9C108.012 25.548 108.705 25.372 109.473 25.372C110.231 25.372 110.913 25.548 111.521 25.9C112.14 26.252 112.625 26.7427 112.977 27.372C113.34 27.9907 113.521 28.7107 113.521 29.532C113.521 30.3533 113.34 31.0787 112.977 31.708C112.625 32.3267 112.14 32.812 111.521 33.164C110.903 33.516 110.215 33.692 109.457 33.692ZM109.457 31.916C109.991 31.916 110.455 31.7187 110.849 31.324C111.244 30.9187 111.441 30.3213 111.441 29.532C111.441 28.7427 111.244 28.1507 110.849 27.756C110.455 27.3507 109.996 27.148 109.473 27.148C108.929 27.148 108.46 27.3507 108.065 27.756C107.681 28.1507 107.489 28.7427 107.489 29.532C107.489 30.3213 107.681 30.9187 108.065 31.324C108.46 31.7187 108.924 31.916 109.457 31.916ZM119.089 33.692C118.406 33.692 117.846 33.5853 117.409 33.372C116.971 33.148 116.646 32.8547 116.433 32.492C116.219 32.1293 116.113 31.7293 116.113 31.292C116.113 30.556 116.401 29.9587 116.977 29.5C117.553 29.0413 118.417 28.812 119.569 28.812H121.585V28.62C121.585 28.076 121.43 27.676 121.121 27.42C120.811 27.164 120.427 27.036 119.969 27.036C119.553 27.036 119.19 27.1373 118.881 27.34C118.571 27.532 118.379 27.82 118.305 28.204H116.305C116.358 27.628 116.55 27.1267 116.881 26.7C117.222 26.2733 117.659 25.948 118.193 25.724C118.726 25.4893 119.323 25.372 119.985 25.372C121.115 25.372 122.006 25.6547 122.657 26.22C123.307 26.7853 123.633 27.5853 123.633 28.62V33.5H121.889L121.697 32.22C121.462 32.6467 121.131 32.9987 120.705 33.276C120.289 33.5533 119.75 33.692 119.089 33.692ZM119.553 32.092C120.139 32.092 120.593 31.9 120.913 31.516C121.243 31.132 121.451 30.6573 121.537 30.092H119.793C119.249 30.092 118.859 30.1933 118.625 30.396C118.39 30.588 118.273 30.828 118.273 31.116C118.273 31.4253 118.39 31.6653 118.625 31.836C118.859 32.0067 119.169 32.092 119.553 32.092ZM130.235 33.692C129.488 33.692 128.822 33.5107 128.235 33.148C127.648 32.7853 127.184 32.2893 126.843 31.66C126.502 31.0307 126.331 30.316 126.331 29.516C126.331 28.716 126.502 28.0067 126.843 27.388C127.184 26.7587 127.648 26.268 128.235 25.916C128.822 25.5533 129.488 25.372 130.235 25.372C130.832 25.372 131.355 25.484 131.803 25.708C132.251 25.932 132.614 26.2467 132.891 26.652V21.98H134.939V33.5H133.115L132.891 32.364C132.635 32.716 132.294 33.0253 131.867 33.292C131.451 33.5587 130.907 33.692 130.235 33.692ZM130.667 31.9C131.328 31.9 131.867 31.6813 132.283 31.244C132.71 30.796 132.923 30.2253 132.923 29.532C132.923 28.8387 132.71 28.2733 132.283 27.836C131.867 27.388 131.328 27.164 130.667 27.164C130.016 27.164 129.478 27.3827 129.051 27.82C128.624 28.2573 128.411 28.8227 128.411 29.516C128.411 30.2093 128.624 30.78 129.051 31.228C129.478 31.676 130.016 31.9 130.667 31.9ZM142.165 33.5L146.261 22.3H148.565L152.661 33.5H150.485L149.589 30.908H145.221L144.309 33.5H142.165ZM145.781 29.308H149.029L147.397 24.652L145.781 29.308ZM155.056 37.02V25.564H156.88L157.104 26.7C157.36 26.348 157.696 26.0387 158.112 25.772C158.538 25.5053 159.088 25.372 159.76 25.372C160.506 25.372 161.173 25.5533 161.76 25.916C162.346 26.2787 162.81 26.7747 163.152 27.404C163.493 28.0333 163.664 28.748 163.664 29.548C163.664 30.348 163.493 31.0627 163.152 31.692C162.81 32.3107 162.346 32.8013 161.76 33.164C161.173 33.516 160.506 33.692 159.76 33.692C159.162 33.692 158.64 33.58 158.192 33.356C157.744 33.132 157.381 32.8173 157.104 32.412V37.02H155.056ZM159.328 31.9C159.978 31.9 160.517 31.6813 160.944 31.244C161.37 30.8067 161.584 30.2413 161.584 29.548C161.584 28.8547 161.37 28.284 160.944 27.836C160.517 27.388 159.978 27.164 159.328 27.164C158.666 27.164 158.122 27.388 157.696 27.836C157.28 28.2733 157.072 28.8387 157.072 29.532C157.072 30.2253 157.28 30.796 157.696 31.244C158.122 31.6813 158.666 31.9 159.328 31.9ZM166.493 37.02V25.564H168.317L168.541 26.7C168.797 26.348 169.133 26.0387 169.549 25.772C169.976 25.5053 170.525 25.372 171.197 25.372C171.944 25.372 172.61 25.5533 173.197 25.916C173.784 26.2787 174.248 26.7747 174.589 27.404C174.93 28.0333 175.101 28.748 175.101 29.548C175.101 30.348 174.93 31.0627 174.589 31.692C174.248 32.3107 173.784 32.8013 173.197 33.164C172.61 33.516 171.944 33.692 171.197 33.692C170.6 33.692 170.077 33.58 169.629 33.356C169.181 33.132 168.818 32.8173 168.541 32.412V37.02H166.493ZM170.765 31.9C171.416 31.9 171.954 31.6813 172.381 31.244C172.808 30.8067 173.021 30.2413 173.021 29.548C173.021 28.8547 172.808 28.284 172.381 27.836C171.954 27.388 171.416 27.164 170.765 27.164C170.104 27.164 169.56 27.388 169.133 27.836C168.717 28.2733 168.509 28.8387 168.509 29.532C168.509 30.2253 168.717 30.796 169.133 31.244C169.56 31.6813 170.104 31.9 170.765 31.9Z" fill="white"/>
</svg>
